<svg viewBox="0 0 547 321" xmlns="http://www.w3.org/2000/svg" xml:space="preserve" style="fill-rule:evenodd;clip-rule:evenodd;stroke-linejoin:round;stroke-miterlimit:2"><path d="M187.229 436.026v8.625h-13.224c-.651-1.834-.97-4.452-.97-7.841v-7.269c0-2.22-.425-3.775-1.276-4.638-.837-.864-2.352-1.303-4.518-1.303h-4.492v7.11c0 1.927.173 3.216.532 3.881.345.651 1.103 1.13 2.272 1.422v8.638h-17.808v-8.638c1.17-.292 1.927-.771 2.273-1.449.359-.677.531-1.953.531-3.854v-25.303c0-1.928-.186-3.217-.544-3.894-.359-.678-1.117-1.143-2.26-1.409v-8.638h21.769c4.943 0 8.571.757 10.897 2.259 3.854 2.498 5.781 6.857 5.781 13.05 0 3.562-.664 6.339-1.993 8.306-1.329 1.981-3.429 3.349-6.313 4.107 2.565.412 4.399 1.236 5.515 2.472 1.117 1.222 1.675 3.057 1.675 5.501v4.399c0 1.316.159 2.3.465 2.938.306.624.877 1.143 1.688 1.528Zm-24.48-34.513v12.598h4.731c2.153 0 3.681-.332 4.558-.983 1.356-1.024 2.034-2.831 2.034-5.449 0-2.312-.546-3.907-1.622-4.811-1.077-.903-3.004-1.355-5.794-1.355h-3.908.001Zm65.186 3.109v26.474c0 2.578-.16 4.359-.465 5.369-.904 3.017-2.858 5.315-5.834 6.923-2.885 1.582-6.725 2.379-11.523 2.379-7.96 0-13.396-2.099-16.306-6.299-1.117-1.635-1.675-4.133-1.675-7.508v-27.338c0-9.515 6.007-14.273 18.021-14.273 7.575 0 12.825 2.021 15.762 6.047 1.342 1.848 2.02 4.585 2.02 8.226Zm-23.603 3.39v19.668c0 2.459.346 4.213 1.05 5.263.931 1.369 2.485 2.06 4.651 2.06 3.802 0 5.702-2.259 5.702-6.778v-20.559c0-1.727-.266-3.043-.811-3.96-1.01-1.728-2.592-2.592-4.731-2.592-3.907 0-5.861 2.299-5.861 6.898Zm44.268 4.744h11.403v-7.349c0-1.901-.186-3.19-.545-3.881-.359-.678-1.116-1.156-2.259-1.422v-8.638h17.808v8.638c-1.143.266-1.901.731-2.26 1.409-.358.677-.544 1.966-.544 3.894v25.303c0 1.927.173 3.216.531 3.881.346.651 1.103 1.13 2.273 1.422v8.638h-17.808v-8.638c1.169-.292 1.927-.771 2.272-1.449.359-.677.532-1.953.532-3.854v-8.944H248.6v8.944c0 1.901.173 3.177.532 3.854.345.678 1.103 1.157 2.272 1.449v8.638h-17.808v-8.638c1.17-.292 1.927-.771 2.273-1.449.359-.677.531-1.953.531-3.854v-25.303c0-1.928-.186-3.217-.545-3.894-.358-.678-1.116-1.143-2.259-1.409v-8.638h17.808v8.638c-1.143.266-1.9.731-2.259 1.409-.359.677-.545 1.966-.545 3.894v7.349Zm71.871 23.27v8.625h-13.224c-.651-1.834-.97-4.452-.97-7.841v-7.269c0-2.22-.425-3.775-1.276-4.638-.837-.864-2.352-1.303-4.518-1.303h-4.492v7.11c0 1.927.173 3.216.532 3.881.346.651 1.103 1.13 2.273 1.422v8.638h-17.809v-8.638c1.17-.292 1.927-.771 2.273-1.449.359-.677.532-1.953.532-3.854v-25.303c0-1.928-.187-3.217-.545-3.894-.359-.678-1.117-1.143-2.26-1.409v-8.638h21.769c4.943 0 8.571.757 10.897 2.259 3.855 2.498 5.781 6.857 5.781 13.05 0 3.562-.664 6.339-1.993 8.306-1.329 1.981-3.429 3.349-6.313 4.107 2.565.412 4.399 1.236 5.515 2.472 1.117 1.222 1.675 3.057 1.675 5.501v4.399c0 1.316.159 2.3.465 2.938.306.624.877 1.143 1.688 1.528Zm-24.48-34.513v12.598h4.731c2.153 0 3.681-.332 4.558-.983 1.356-1.024 2.034-2.831 2.034-5.449 0-2.312-.545-3.907-1.622-4.811-1.076-.903-3.003-1.355-5.794-1.355h-3.907Zm69.253 34.513v8.625H352.02c-.651-1.834-.97-4.452-.97-7.841v-7.269c0-2.22-.425-3.775-1.276-4.638-.837-.864-2.352-1.303-4.518-1.303h-4.492v7.11c0 1.927.173 3.216.532 3.881.345.651 1.103 1.13 2.272 1.422v8.638H325.76v-8.638c1.17-.292 1.927-.771 2.273-1.449.359-.677.531-1.953.531-3.854v-25.303c0-1.928-.186-3.217-.544-3.894-.359-.678-1.117-1.143-2.26-1.409v-8.638h21.769c4.943 0 8.571.757 10.897 2.259 3.854 2.498 5.781 6.857 5.781 13.05 0 3.562-.664 6.339-1.993 8.306-1.329 1.981-3.429 3.349-6.313 4.107 2.565.412 4.399 1.236 5.515 2.472 1.117 1.222 1.675 3.057 1.675 5.501v4.399c0 1.316.159 2.3.465 2.938.306.624.877 1.143 1.688 1.528Zm-24.48-34.513v12.598h4.731c2.153 0 3.681-.332 4.558-.983 1.356-1.024 2.034-2.831 2.034-5.449 0-2.312-.546-3.907-1.622-4.811-1.076-.903-3.004-1.355-5.794-1.355h-3.907Zm67.339-10.048v16.427H396.66c.027-.465.04-.811.04-1.024 0-1.9-.385-3.203-1.169-3.907-.785-.704-2.233-1.05-4.333-1.05h-5.661v10.765h14.831v9.01h-14.831v12.918h5.156c2.605 0 4.253-.386 4.917-1.17.678-.784 1.01-2.698 1.01-5.741.027-.133.04-.359.04-.664h11.443v17.622h-37.57v-8.639c1.169-.292 1.927-.77 2.272-1.421.359-.665.532-1.954.532-3.881v-25.304c0-1.927-.186-3.216-.545-3.894-.358-.678-1.116-1.143-2.259-1.409v-8.638h37.57Zm8.532 39.245v-25.303c0-1.928-.186-3.217-.545-3.895-.359-.677-1.116-1.143-2.259-1.408v-8.639h17.808v8.639c-1.143.265-1.9.731-2.259 1.408-.359.678-.545 1.967-.545 3.895v25.303c0 1.927.172 3.216.531 3.881.346.651 1.103 1.129 2.273 1.422v8.638h-17.808v-8.638c1.169-.293 1.927-.771 2.272-1.422.359-.665.532-1.954.532-3.881Zm48.746 13.941-13.635-27.962v14.021c0 1.9.173 3.176.532 3.854.345.678 1.103 1.156 2.273 1.449v8.638h-16.772v-8.638c1.169-.293 1.927-.771 2.272-1.449.359-.678.532-1.954.532-3.854v-25.303c0-1.928-.186-3.217-.545-3.895-.359-.677-1.116-1.143-2.259-1.408v-8.639h13.967l13.635 27.603v-13.661c0-1.928-.186-3.217-.545-3.895-.358-.677-1.116-1.143-2.259-1.408v-8.639h16.772v8.639c-1.143.265-1.901.744-2.26 1.422-.358.691-.545 1.98-.545 3.881v39.244h-11.163ZM488.2 430.71v-25.303c0-1.928-.186-3.217-.545-3.895-.359-.677-1.117-1.143-2.26-1.408v-8.639h17.809v8.639c-1.143.265-1.901.731-2.26 1.408-.359.678-.545 1.967-.545 3.895v25.303c0 1.927.173 3.216.532 3.881.346.651 1.103 1.129 2.273 1.422v8.638h-17.809v-8.638c1.17-.293 1.927-.771 2.273-1.422.359-.665.532-1.954.532-3.881Zm56.002-36.36v14.18H532.56v-1.369c0-4.027-1.834-6.047-5.488-6.047-2.02 0-3.509.571-4.479 1.728-.957 1.156-1.435 2.937-1.435 5.382v19.656c0 1.94.213 3.362.624 4.305.386.864 1.064 1.542 2.007 2.06.957.505 2.06.758 3.309.758 3.642 0 5.462-2.233 5.462-6.685v-3.043h-4.784v-8.453h16.427v23.975c-4.944 3.309-10.832 4.97-17.663 4.97-5.98 0-10.592-1.395-13.834-4.173-1.382-1.143-2.352-2.472-2.911-4-.558-1.541-.837-3.575-.837-6.126v-26.566c0-2.26.213-4.08.625-5.476.412-1.395 1.129-2.644 2.139-3.774 3.15-3.535 8.28-5.303 15.403-5.303 6.034 0 11.722 1.329 17.078 4.001h-.001Zm42.354 11.057v22.273c0 3.03-.119 5.263-.372 6.685-.239 1.422-.744 2.777-1.502 4.04-1.249 2.1-3.11 3.774-5.608 5.023-2.591 1.289-5.834 1.941-9.701 1.941-7.137 0-12.173-2.22-15.084-6.645-1.395-2.127-2.1-4.891-2.1-8.293v-25.024c0-1.928-.186-3.217-.545-3.895-.359-.677-1.116-1.143-2.259-1.408v-8.639h17.808v8.639c-1.143.265-1.9.744-2.259 1.422-.359.691-.545 1.98-.545 3.881v22.233c0 2.193.292 3.761.864 4.718.957 1.555 2.631 2.325 5.037 2.325 1.98 0 3.402-.558 4.279-1.661.863-1.116 1.302-2.95 1.302-5.502v-22.113c0-1.928-.186-3.217-.545-3.895-.359-.677-1.116-1.143-2.259-1.408v-8.639h16.293v8.639c-1.143.239-1.9.704-2.259 1.382-.359.691-.545 1.993-.545 3.921Zm35.577 39.244-13.635-27.961v14.02c0 1.901.173 3.177.531 3.854.346.678 1.103 1.157 2.273 1.449v8.638H594.53v-8.638c1.17-.292 1.927-.771 2.273-1.449.359-.677.532-1.953.532-3.854v-25.303c0-1.928-.187-3.217-.545-3.894-.359-.678-1.117-1.143-2.26-1.409v-8.638h13.968l13.635 27.602v-13.661c0-1.928-.186-3.217-.545-3.894-.359-.678-1.116-1.143-2.259-1.409v-8.638H636.1v8.638c-1.143.266-1.9.744-2.259 1.422-.359.691-.545 1.98-.545 3.881v39.244h-11.163Zm54.793-50.301v14.18h-11.642v-1.369c0-4.027-1.834-6.047-5.488-6.047-2.02 0-3.509.571-4.479 1.728-.957 1.156-1.435 2.937-1.435 5.382v19.656c0 1.94.213 3.362.624 4.305.386.864 1.064 1.542 2.007 2.06.957.505 2.06.758 3.309.758 3.642 0 5.462-2.233 5.462-6.685v-3.043H660.5v-8.453h16.426v23.975c-4.943 3.309-10.831 4.97-17.662 4.97-5.98 0-10.592-1.395-13.834-4.173-1.382-1.143-2.352-2.472-2.911-4-.558-1.541-.837-3.575-.837-6.126v-26.566c0-2.26.213-4.08.625-5.476.412-1.395 1.129-2.644 2.139-3.774 3.15-3.535 8.28-5.303 15.403-5.303 6.034 0 11.722 1.329 17.077 4.001Z" style="fill:#0088ce;fill-rule:nonzero" transform="translate(-147.7448 -125.508)"/><path d="M455.284 262.44c-.412-10.479 7.747-19.307 18.226-19.72 7.346-.288 13.881 3.637 17.274 9.62v.002c1.446 2.549 2.322 5.473 2.445 8.606.637 16.173-13.439 21.698 11.023 42.549-29.361-7.194-48.254-22.921-48.968-41.057ZM468.363 317.009c-5.252-2.983-7.09-9.658-4.107-14.909 2.09-3.681 5.994-5.682 9.95-5.524l.002-.003h.001c1.686.069 3.383.528 4.951 1.422 8.104 4.602 6.532 13.162 24.162 7.534-12.439 12.176-25.872 16.639-34.959 11.48Z" style="fill:#005994" transform="translate(-147.7448 -125.508)"/><path d="M499.929 265.297c3.901-4.607 10.8-5.182 15.409-1.281 3.23 2.735 4.478 6.944 3.592 10.804l-.001.001c-.378 1.645-1.144 3.227-2.31 4.604-6.021 7.114-14.146 3.984-11.874 22.351-9.666-14.475-11.567-28.501-4.816-36.479Z" style="fill:#005994" transform="translate(-147.7448 -125.508)"/><path d="m503.378 227.139 4.342-6.857c.951-1.501.504-3.508-.996-4.463-1.498-.951-3.511-.505-4.458.996l-4.327 6.891c-.946 1.504-.524 3.473.978 4.426 1.499.953 3.509.505 4.461-.993Zm-33.036-21.259 5.676-8.929c.956-1.503.505-3.509-.994-4.461v-.002c-1.5-.952-3.508-.505-4.459.997l-5.678 8.931c-.951 1.5-.504 3.507.994 4.459h.003c1.499.951 3.507.506 4.458-.995Zm10.942 7.02 2.321-3.718c.94-1.505.507-3.504-.995-4.458-1.499-.952-3.507-.507-4.461.994l-2.339 3.682c-.952 1.501-.507 3.506.996 4.459 1.5.954 3.535.549 4.478-.959Zm11.942-62.147 15.229-12.092 36.993 46.589-15.226 12.092-3.843-4.84c-1.463 1.579-2.862 3.242-4.187 4.984-10.164 15.993 2.693-4.219-7.479 11.772-.977 1.539-3.037 2.001-4.576 1.021l-.002-.004c-1.54-.978-1.999-3.034-1.022-4.574 7.738-12.177 6.206-9.832 13.939-21.998.963-1.518.51-3.538-1.003-4.502h-.002c-1.513-.964-3.537-.511-4.497 1.003-13.259 20.859-15.872 25.086-29.13 45.946-.962 1.514-2.902 1.814-4.498 1.003-1.596-1.016-2.019-2.9-1.006-4.501l18.383-28.995h-.001l1.594-2.508c.961-1.513.509-3.537-1.006-4.498l.001-.003c-1.514-.96-3.538-.509-4.499 1.007l-8.476 13.35c-1.027 1.272-2.88 1.605-4.291.709v-.004c-1.515-.961-1.966-2.984-1.004-4.496l10.212-16.081c.877-1.501.411-3.451-1.067-4.39h-.002c-1.407-.899-3.256-.569-4.281.699l-6.749 10.63c-.96 1.512-2.987 1.963-4.498.999h-.002c-1.513-.961-1.966-2.985-1.002-4.495 5.822-9.17 10.008-17.019 21.594-28.037l-4.596-5.785v-.001Z" style="fill:#5fc6f1" transform="translate(-147.7448 -125.508)"/><path d="m595.499 180.237 17.312 8.86 26.788-52.377-17.309-8.851-3.269 6.392c-7.831-3.288-15.907-5.63-24.075-7.06-14.741-2.582-29.699-2.183-43.986 1.004-12.039 2.685-23.67 7.361-34.364 13.912l28.715 36.16c4.955-2.495 10.191-4.354 15.573-5.554 8.567-1.908 17.46-2.162 26.151-.64 3.74.654 7.461 1.642 11.118 2.969l-2.654 5.185Z" style="fill:#00a0e3" transform="translate(-147.7448 -125.508)"/><path d="m595.096 294.664 17.309-8.855 3.099 6.055c6.341-4.725 11.963-10.694 16.497-17.826 4.346-6.844 7.301-14.14 8.935-21.566h46.237c-2.032 15.9-7.512 31.609-16.668 46.032-8.154 12.832-18.515 23.468-30.296 31.738-1.244.873-2.503 1.721-3.779 2.54l3.481 6.801-10.629 5.438c-4.554-1.396-7.518-5.796-7.084-10.554l2.518-27.616-7.734 26.63c-.225.772-.535 1.499-.919 2.173l-20.967-40.99Z" style="fill:#006cb5" transform="translate(-147.7448 -125.508)"/><path d="M634.935 247.838v-19.443h6.814c-.244-1.627-.543-3.249-.901-4.859-3.079-13.813-10.511-26.659-21.798-36.303l21.119-41.282c10.922 7.661 20.101 16.982 27.426 27.411 8.596 12.251 14.587 25.962 17.77 40.248 1.087 4.869 1.85 9.81 2.286 14.786h6.494v19.442h-59.21Z" style="fill:#0088ce" transform="translate(-147.7448 -125.508)"/><path d="M606.551 346.338c-2.18.627-4.377 1.188-6.589 1.68-27.826 6.201-57.993 1.904-84.045-14.332l-4.066 6.402-16.796-10.69 32.184-50.647 16.793 10.691-3.647 5.738c7.457 4.591 15.429 7.542 23.505 8.959 8.686 1.522 17.577 1.268 26.144-.64 1.228-.275 2.45-.583 3.66-.922l18.791 36.738c-1.784 1.07-3.905 1.595-6.101 1.394l-27.615-2.519 26.63 7.735c.396.115.781.254 1.153.412l-.001.001Z" style="fill:#005994" transform="translate(-147.7448 -125.508)"/><path d="m584.792 339.94-5.069-.462 26.631 7.735c1.909.554 3.545 1.635 4.78 3.049-1.278-2.043-3.282-3.624-5.736-4.336l-20.606-5.985v-.001ZM624.646 342.016c-1.137-1.817-1.699-3.998-1.493-6.261l2.519-27.617-1.565 5.386-1.91 20.943c-.258 2.828.685 5.529 2.449 7.549ZM629.395 351.568l27.617 2.519-6.025-1.75-22.547-2.056c-4.807-.439-9.251 2.592-10.598 7.228l-6.169 21.244-.609 6.673 7.734-26.63c1.347-4.635 5.79-7.666 10.597-7.228Z" style="fill:#005994" transform="translate(-147.7448 -125.508)"/><g><path d="M227.097 268.336v27.424h-26.08c.087-1.665.146-2.979.146-3.943 0-4.001-.905-7.068-2.687-9.2-2.424-2.804-5.87-4.205-10.368-4.205-3.563 0-6.484.993-8.762 2.95-2.278 1.986-3.417 4.497-3.417 7.593 0 3.476 1.694 6.279 5.082 8.382 2.044 1.314 9.404 4.38 22.05 9.258 9.696 3.768 16.355 8.002 19.976 12.733 3.651 4.76 5.461 11.595 5.461 20.56 0 10.339-2.95 18.692-8.82 25.088-7.067 7.71-17.377 11.565-30.957 11.565-13.989 0-27.278-4.497-39.953-13.493v-29.263h27.103c-.088 1.723-.117 3.125-.117 4.293 0 9.871 4.381 14.807 13.171 14.807 3.855 0 6.98-1.139 9.375-3.388 2.366-2.249 3.563-5.169 3.563-8.762 0-3.767-1.226-6.717-3.68-8.82-2.482-2.132-7.797-4.818-15.975-8.06-8.148-3.184-13.609-5.491-16.384-6.893-2.774-1.401-5.315-3.066-7.593-4.994-5.958-5.256-8.937-12.937-8.937-23.042 0-13.814 5.432-23.54 16.267-29.205 6.337-3.301 14.194-4.965 23.627-4.965 14.544 0 27.19 4.527 37.908 13.58h.001ZM380.203 308.464l19.159 36.36c1.986 3.768 3.505 6.221 4.498 7.36.993 1.139 2.453 2.102 4.409 2.92v18.984h-35.863v-12.5c0-5.081-.263-8.528-.76-10.339-.525-1.84-2.19-5.373-4.994-10.63l-12.645-23.189v26.022c0 4.176.379 6.98 1.168 8.469.759 1.489 2.424 2.541 4.994 3.183v18.984h-39.135v-18.984c2.57-.642 4.235-1.694 4.994-3.125.789-1.46 1.168-4.292 1.168-8.527v-55.607c0-4.235-.409-7.068-1.197-8.557-.789-1.49-2.453-2.512-4.965-3.096v-18.983h39.135l.175 18.983c-2.512.409-4.205 1.402-5.052 2.95-.847 1.577-1.285 4.468-1.285 8.703v20.619l12.821-20.122c2.628-4.089 4.205-6.951 4.76-8.558.555-1.577.818-4.322.818-8.206v-14.369h33.031v18.984c-1.899.291-3.447.963-4.702 2.015-1.256 1.051-2.862 3.066-4.79 6.045l-15.741 24.211h-.001Z" style="fill:#005994;fill-rule:nonzero" transform="translate(-147.7448 -125.508)"/><path d="M260.976 326.341c-3.893 3.115-6.787 6.349-8.733 9.678-1.947 3.353-2.92 6.825-2.92 10.464 0 5.184 1.921 9.702 5.788 13.507 3.841 3.805 8.374 5.707 13.573 5.707 3.278 0 6.351-.666 9.22-1.998 2.842-1.308 5.608-3.377 8.323-6.182l-25.251-31.176Zm9.219-6.897 22.614 28.132c1.664-3.424 2.996-6.848 4.02-10.225.848-2.814 1.45-5.547 1.792-8.225.174-1.356-2.053-1.668-2.984-1.668v-9.56h16.578v9.56c-1.247.345-2.79.839-3.019 2.258-.722 4.456-1.755 8.718-3.148 12.747-1.628 4.712-3.739 9.227-6.325 13.531l5.739 7.59c1.015 1.342 3.04 1.167 4.548 1.114v9.845h-10.441l-7.196-9.132c-3.714 3.758-7.632 6.54-11.781 8.371-4.174 1.831-8.758 2.759-13.752 2.759-8.759 0-15.929-2.593-21.487-7.776-5.557-5.161-8.323-11.867-8.323-20.095 0-5.755 1.434-11.058 4.328-15.909 2.868-4.851 7.401-9.56 13.624-14.173-3.457-4.09-5.967-7.966-7.555-11.629-1.613-3.686-2.407-7.395-2.407-11.153 0-6.325 1.921-11.272 5.737-14.886 3.841-3.591 9.04-5.398 15.647-5.398 6.249 0 11.294 1.665 15.135 5.017 3.816 3.354 5.737 7.753 5.737 13.246 0 5.017-1.383 9.607-4.149 13.769-2.74 4.161-7.068 8.109-12.933 11.89h.001Zm-5.839-7.253c3.944-3.305 6.864-6.42 8.733-9.345 1.87-2.926 2.817-5.85 2.817-8.775 0-2.64-.87-4.804-2.638-6.492-1.741-1.665-3.995-2.497-6.735-2.497-3.099 0-5.583.927-7.401 2.758-1.818 1.831-2.74 4.281-2.74 7.348 0 2.45.64 5.066 1.921 7.8 1.28 2.735 3.278 5.803 6.043 9.203Z" style="fill:#0088ce;fill-rule:nonzero" transform="translate(-147.7448 -125.508)"/></g></svg>